# 3ds Max Wavefront OBJ Exporter v0.97b - (c)2007 guruware
# File Created: 04.05.2019 22:14:54

mtllib triangulo.mtl

#
# object Box003
#

v  0.0008 10.4112 1.0000
v  0.0008 10.4112 0.0000
v  -0.0017 10.4112 0.0000
v  -0.0017 10.4112 1.0000
v  -9.4486 -8.9578 1.0000
v  -9.4486 -8.9578 0.0000
v  9.4477 -8.9578 0.0000
v  9.4477 -8.9578 1.0000
# 8 vertices

vn 0.0000 1.0000 0.0000
vn -0.8988 0.4384 0.0000
vn 0.0000 0.0000 -1.0000
vn 0.0000 -0.0000 1.0000
vn 0.8988 0.4384 0.0000
vn 0.0000 -1.0000 -0.0000
# 6 vertex normals

vt 0.5113 1.0000 0.0000
vt 0.5113 0.0000 0.0000
vt 0.5115 0.0000 0.0000
vt 0.5115 1.0000 0.0000
vt 0.0203 0.9805 0.0000
vt 0.9999 0.9805 0.0000
vt 0.9999 0.0714 0.0000
vt 0.0203 0.0714 0.0000
vt 0.9838 0.0316 0.0000
vt 0.0390 0.0316 0.0000
vt 0.0162 0.0316 0.0000
vt 0.9610 0.0316 0.0000
vt 0.4887 1.0000 0.0000
vt 0.4885 1.0000 0.0000
vt 0.9797 0.0714 0.0000
vt 0.0001 0.0714 0.0000
vt 0.0001 0.9805 0.0000
vt 0.9797 0.9805 0.0000
vt 0.0756 0.3395 0.0000
vt 0.9679 0.3395 0.0000
vt 0.9679 0.5658 0.0000
vt 0.0756 0.5658 0.0000
# 22 texture coords

g Box003
usemtl 14___Default
s 32
f 1/1/1 2/2/1 3/3/1 4/4/1 
s 8
f 5/5/2 4/6/2 3/7/2 6/8/2 
s 2
f 6/9/3 3/4/3 2/1/3 7/10/3 
s 4
f 5/11/4 8/12/4 1/13/4 4/14/4 
s 1
f 7/15/5 2/16/5 1/17/5 8/18/5 
s 16
f 8/19/6 5/20/6 6/21/6 7/22/6 
# 6 polygons

